# xmcd CD database file
# Copyright (C) 1996 Ti Kan
#
# Track frame offsets:
# 	225
# 	16232
# 	29962
# 	46327
# 	55075
# 	63440
# 	76967
# 	89502
# 	101717
# 	116977
# 	129510
# 	146577
# 	159695
# 	171990
# 	184240
# 	198037
#
# Disc length: 2809 seconds
#
# Revision: 1
# Processed by: cddbd v1.4b41PL1 Copyright (c) Steve Scherf et al.
# Submitted via: DiscPlay 3.4.1
#
DISCID=e60af610
DTITLE=Carrol Baker - Hymns Of Gold
DYEAR=1900
DGENRE=
TTITLE0=Why Me (Lord)
TTITLE1=You Light Up My Life
TTITLE2=It Is No Secret (What God Can Do)
TTITLE3=Let's All Go Down To The River
TTITLE4=I Was There When It Happened
TTITLE5=The Old Rugged Cross
TTITLE6=Amazing Grace
TTITLE7=Peace In The Valley
TTITLE8=One Day At A Time
TTITLE9=You Can't Be A Beacon If Your Light Don't Shine
TTITLE10=Whispering Hope
TTITLE11=Jesus It's Me Again
TTITLE12=Softly and Tenderly (Jesus Is Calling)
TTITLE13=What A Friend We Have In Jesus
TTITLE14=Just A Closer Walk With Thee
TTITLE15=How Great Though Art
EXTD=
EXTT0=
EXTT1=
EXTT2=
EXTT3=
EXTT4=
EXTT5=
EXTT6=
EXTT7=
EXTT8=
EXTT9=
EXTT10=
EXTT11=
EXTT12=
EXTT13=
EXTT14=
EXTT15=
PLAYORDER=
